<svg width="2374" height="463" viewBox="0 0 2374 463" fill="none" xmlns="http://www.w3.org/2000/svg">
<path d="M947.888 72.9059H897.624V144.191H947.888C957.224 144.191 965.144 140.737 971.648 133.836C978.141 126.927 981.398 118.498 981.398 108.55C981.398 98.601 978.143 90.1713 971.648 83.2629C965.144 76.3619 957.224 72.9078 947.888 72.9078V72.9059ZM1022.52 253.25H984.143L939.052 175.565H897.624V253.25H862.587V40.01H947.886C966.973 40.01 983.122 46.7044 996.326 60.1151C1009.72 73.1126 1016.43 89.2533 1016.43 108.548C1016.43 122.158 1012.52 134.589 1004.7 145.868C996.877 157.13 986.672 165.314 974.08 170.391L1022.52 253.248L1022.52 253.25Z" fill="#333333"/>
<path d="M1084.36 162.157V219.735H1178.79V253.245H1049.32V40.0051H1177.26V73.5136H1084.36V128.95H1169.66V162.157H1084.36Z" fill="#333333"/>
<path d="M1245.81 219.735H1294.56C1314.66 219.735 1331 212.834 1343.6 199.015C1356.39 185.213 1362.78 167.742 1362.78 146.62C1362.78 125.503 1356.39 108.041 1343.6 94.2221C1331 80.4146 1314.66 73.5118 1294.56 73.5118H1245.81V219.733V219.735ZM1210.77 40.0051H1294.55C1323.8 40.0051 1348.05 50.2634 1367.35 70.7689C1386.85 91.2891 1396.6 116.567 1396.6 146.622C1396.6 176.475 1386.85 201.764 1367.35 222.472C1348.05 242.993 1323.8 253.245 1294.55 253.245H1210.77V40.0051Z" fill="#333333"/>
<path d="M1458.9 147.233H1502.46C1512.82 147.233 1521.35 143.729 1528.04 136.726C1534.75 129.722 1538.1 120.839 1538.1 110.069C1538.1 99.3096 1534.75 90.4173 1528.04 83.4138C1521.35 76.4086 1512.82 72.8996 1502.46 72.8996H1458.9V147.233ZM1423.86 40.0018H1502.46C1522.57 40.0018 1539.32 46.7054 1552.72 60.1088C1566.33 73.5103 1573.13 90.1613 1573.13 110.067C1573.13 129.768 1566.33 146.419 1552.72 160.022C1539.32 173.432 1522.57 180.127 1502.46 180.127H1458.9V253.24H1423.86V40V40.0018Z" fill="#333333"/>
<path d="M1660.87 81.1296L1627.05 177.391H1694.69L1660.86 81.1296H1660.87ZM1758.96 253.242H1721.18L1706.26 210.294H1615.47L1600.56 253.242H1562.47L1639.84 40.0051H1681.89L1758.96 253.242Z" fill="#333333"/>
<path d="M1909.75 184.705V40.0051H1944.79V253.242H1917.37L1816.84 108.542V253.242H1781.81V40.0051H1809.22L1909.75 184.705Z" fill="#333333"/>
<path d="M2022.46 219.735H2071.2C2091.31 219.735 2107.65 212.834 2120.25 199.015C2133.04 185.213 2139.43 167.742 2139.43 146.62C2139.43 125.503 2133.04 108.041 2120.25 94.2221C2107.65 80.4146 2091.31 73.5118 2071.2 73.5118H2022.46V219.733V219.735ZM1987.42 40.0051H2071.2C2100.45 40.0051 2124.71 50.2634 2144 70.7689C2163.5 91.2891 2173.25 116.567 2173.25 146.622C2173.25 176.475 2163.5 201.764 2144 222.472C2124.71 242.993 2100.45 253.245 2071.2 253.245H1987.42V40.0051Z" fill="#333333"/>
<path d="M2275.91 81.1296L2242.1 177.391H2309.73L2275.91 81.1296ZM2374 253.242H2336.23L2321.3 210.294H2230.52L2215.6 253.242H2177.51L2254.89 40.0051H2296.94L2374 253.242Z" fill="#333333"/>
<path d="M875.143 388.265H896.875C902.185 388.265 906.505 386.505 909.832 383.001C913.257 379.313 914.963 374.857 914.963 369.632C914.963 364.24 913.257 359.78 909.832 356.276C906.42 352.754 902.09 351.007 896.875 351.007H875.143V388.265ZM862.587 339.26H896.875C905.515 339.26 912.761 342.188 918.608 348.035C924.464 353.882 927.393 361.087 927.393 369.63C927.393 378.183 924.464 385.378 918.608 391.234C912.761 397.081 905.515 400.009 896.875 400.009H875.143V433.76H862.587V339.258V339.26Z" fill="#333333"/>
<path d="M951.283 366.261V377.597C955.151 369.233 962.176 365.053 972.341 365.053V377.335C966.59 377.059 961.627 378.589 957.501 381.929C953.36 385.259 951.283 390.61 951.283 397.981V433.767H939.539V366.263H951.283V366.261Z" fill="#333333"/>
<path d="M995.561 433.762H983.817V366.258H995.561V433.762ZM989.76 353.973C987.505 353.973 985.62 353.216 984.093 351.688C982.556 350.152 981.796 348.305 981.796 346.146C981.796 343.988 982.553 342.122 984.093 340.541C985.62 338.973 987.505 338.182 989.76 338.182C991.919 338.182 993.761 338.973 995.3 340.541C996.83 342.122 997.587 343.988 997.587 346.146C997.587 348.305 996.83 350.152 995.3 351.688C993.763 353.216 991.919 353.973 989.76 353.973Z" fill="#333333"/>
<path d="M1047.13 364.509C1055.04 364.509 1061.39 367.007 1066.16 371.999C1070.93 376.992 1073.32 383.768 1073.32 392.319V433.763H1061.57V392.994C1061.57 387.59 1060.09 383.367 1057.12 380.312C1054.15 377.246 1050.05 375.717 1044.84 375.717C1038.8 375.717 1034.04 377.582 1030.53 381.322C1027.01 385.051 1025.25 390.615 1025.25 397.986V433.763H1013.52V366.268H1025.25V375.983C1029.94 368.333 1037.23 364.511 1047.13 364.511L1047.13 364.509Z" fill="#333333"/>
<path d="M1126.36 366.258V377.594H1108.41V414.178C1108.41 417.508 1109.07 419.878 1110.36 421.267C1111.68 422.67 1113.68 423.384 1116.38 423.428C1119.07 423.479 1122.4 423.406 1126.36 423.227V433.759C1116.02 435.11 1108.48 434.246 1103.76 431.192C1099.03 428.135 1096.67 422.457 1096.67 414.176V377.591H1083.3V366.255H1096.67V350.866L1108.42 347.357V366.255H1126.37L1126.36 366.258Z" fill="#333333"/>
<path d="M1152.03 433.762H1140.28V366.258H1152.03V433.762ZM1146.22 353.973C1143.96 353.973 1142.08 353.216 1140.55 351.688C1139.02 350.152 1138.26 348.305 1138.26 346.146C1138.26 343.988 1139.01 342.122 1140.55 340.541C1142.08 338.973 1143.96 338.182 1146.22 338.182C1148.38 338.182 1150.22 338.973 1151.75 340.541C1153.29 342.122 1154.06 343.988 1154.06 346.146C1154.06 348.305 1153.29 350.152 1151.75 351.688C1150.22 353.216 1148.38 353.973 1146.22 353.973Z" fill="#333333"/>
<path d="M1203.59 364.509C1211.51 364.509 1217.86 367.007 1222.62 371.999C1227.39 376.992 1229.78 383.768 1229.78 392.319V433.763H1218.03V392.994C1218.03 387.59 1216.55 383.367 1213.58 380.312C1210.61 377.246 1206.51 375.717 1201.29 375.717C1195.26 375.717 1190.5 377.582 1186.99 381.322C1183.47 385.051 1181.71 390.615 1181.71 397.986V433.763H1169.98V366.268H1181.71V375.983C1186.4 368.333 1193.69 364.511 1203.59 364.511V364.509Z" fill="#333333"/>
<path d="M1302.14 399.608C1302.14 392.856 1299.84 387.188 1295.25 382.597C1290.67 378.004 1284.95 375.717 1278.11 375.717C1271.27 375.717 1265.55 378.004 1260.96 382.597C1256.37 387.19 1254.07 392.858 1254.07 399.608C1254.07 406.447 1256.37 412.168 1260.96 416.759C1265.56 421.34 1271.27 423.637 1278.11 423.637C1284.95 423.637 1290.67 421.34 1295.25 416.759C1299.84 412.166 1302.14 406.445 1302.14 399.608ZM1302.14 377.878V366.268H1313.75V430.929C1313.75 440.914 1310.38 448.656 1303.63 454.145C1296.78 459.726 1288.68 462.519 1279.32 462.519C1271.76 462.519 1265.24 461.098 1259.75 458.264C1254.25 455.43 1250.11 451.355 1247.33 446.045L1257.59 440.239C1261.28 447.802 1268.61 451.587 1279.59 451.587C1286.61 451.587 1292.13 449.74 1296.13 446.045C1300.14 442.357 1302.14 437.323 1302.14 430.929V421.34C1296.2 430.35 1287.74 434.847 1276.77 434.847C1267.04 434.847 1258.89 431.423 1252.33 424.586C1245.66 417.655 1242.34 409.332 1242.34 399.608C1242.34 389.886 1245.66 381.617 1252.33 374.77C1258.89 367.931 1267.04 364.509 1276.77 364.509C1287.83 364.509 1296.3 368.964 1302.14 377.878Z" fill="#333333"/>
<path d="M1397.17 424.177C1404.01 424.177 1409.72 421.88 1414.32 417.284C1418.91 412.524 1421.2 406.762 1421.2 400.01C1421.2 393.17 1418.91 387.454 1414.32 382.87C1409.72 378.183 1404.01 375.845 1397.17 375.845C1390.42 375.845 1384.75 378.183 1380.16 382.87C1375.57 387.454 1373.27 393.173 1373.27 400.01C1373.27 406.762 1375.57 412.524 1380.16 417.284C1384.76 421.88 1390.42 424.177 1397.17 424.177ZM1421.2 377.868V366.259H1432.95V433.763H1421.2V422.154C1415.44 431.067 1406.94 435.513 1395.69 435.513C1386.15 435.513 1378.09 432.1 1371.52 425.249C1364.86 418.33 1361.54 409.913 1361.54 400.01C1361.54 390.203 1364.86 381.827 1371.52 374.906C1378.18 367.975 1386.24 364.509 1395.69 364.509C1406.94 364.509 1415.44 368.967 1421.2 377.868Z" fill="#333333"/>
<path d="M1506.79 399.608C1506.79 392.856 1504.49 387.188 1499.9 382.597C1495.32 378.004 1489.6 375.717 1482.76 375.717C1475.91 375.717 1470.21 378.004 1465.61 382.597C1461.02 387.19 1458.72 392.858 1458.72 399.608C1458.72 406.447 1461.02 412.168 1465.61 416.759C1470.21 421.34 1475.91 423.637 1482.76 423.637C1489.6 423.637 1495.32 421.34 1499.9 416.759C1504.49 412.166 1506.79 406.445 1506.79 399.608ZM1506.79 377.878V366.268H1518.4V430.929C1518.4 440.914 1515.03 448.656 1508.27 454.145C1501.44 459.726 1493.33 462.519 1483.97 462.519C1476.41 462.519 1469.89 461.098 1464.4 458.264C1458.9 455.43 1454.76 451.355 1451.98 446.045L1462.24 440.239C1465.93 447.802 1473.26 451.587 1484.24 451.587C1491.26 451.587 1496.79 449.74 1500.78 446.045C1504.79 442.357 1506.79 437.323 1506.79 430.929V421.34C1500.85 430.35 1492.39 434.847 1481.42 434.847C1471.69 434.847 1463.54 431.423 1456.97 424.586C1450.31 417.655 1446.99 409.332 1446.99 399.608C1446.99 389.886 1450.31 381.617 1456.97 374.77C1463.54 367.931 1471.69 364.509 1481.42 364.509C1492.48 364.509 1500.94 368.964 1506.79 377.878Z" fill="#333333"/>
<path d="M1567.81 375.576C1561.61 375.576 1556.41 377.323 1552.22 380.84C1548.04 384.349 1545.45 389.119 1544.46 395.145H1589.55C1588.55 388.94 1586.09 384.126 1582.13 380.704C1578.17 377.28 1573.4 375.573 1567.81 375.573V375.576ZM1601.03 405.406H1544.46C1545.63 411.347 1548.38 416.004 1552.7 419.375C1557.01 422.758 1562.42 424.443 1568.9 424.443C1577.81 424.443 1584.29 421.156 1588.33 414.59L1598.32 420.258C1591.66 430.425 1581.77 435.515 1568.62 435.515C1558 435.515 1549.27 432.185 1542.44 425.527C1535.77 418.693 1532.45 410.179 1532.45 400.004C1532.45 389.741 1535.73 381.285 1542.3 374.625C1548.87 367.882 1557.37 364.501 1567.81 364.501C1577.71 364.501 1585.77 368.011 1591.98 375.036C1598.28 381.871 1601.43 390.247 1601.43 400.138C1601.43 401.853 1601.3 403.606 1601.03 405.406Z" fill="#333333"/>
<path d="M1648.55 364.509C1656.46 364.509 1662.81 367.007 1667.57 371.999C1672.34 376.992 1674.74 383.768 1674.74 392.319V433.763H1662.99V392.994C1662.99 387.59 1661.5 383.367 1658.53 380.312C1655.56 377.246 1651.46 375.717 1646.25 375.717C1640.21 375.717 1635.45 377.582 1631.95 381.322C1628.43 385.051 1626.67 390.615 1626.67 397.986V433.763H1614.93V366.268H1626.67V375.983C1631.36 368.333 1638.65 364.511 1648.55 364.511V364.509Z" fill="#333333"/>
<path d="M1722.79 435.515C1712.61 435.515 1704.16 432.143 1697.42 425.389C1690.66 418.555 1687.28 410.094 1687.28 400.014C1687.28 389.932 1690.66 381.515 1697.42 374.763C1704.16 367.924 1712.61 364.501 1722.79 364.501C1729.45 364.501 1735.43 366.101 1740.74 369.293C1746.05 372.495 1750.01 376.793 1752.63 382.188L1742.77 387.855C1741.06 384.264 1738.43 381.377 1734.88 379.216C1731.31 377.057 1727.29 375.982 1722.79 375.982C1716.04 375.982 1710.37 378.269 1705.78 382.863C1701.29 387.538 1699.03 393.26 1699.03 400.012C1699.03 406.672 1701.29 412.335 1705.78 417.023C1710.38 421.606 1716.04 423.903 1722.79 423.903C1727.29 423.903 1731.35 422.848 1734.94 420.733C1738.54 418.615 1741.29 415.762 1743.18 412.156L1753.16 417.962C1750.2 423.366 1746.01 427.642 1740.61 430.793C1735.21 433.944 1729.27 435.515 1722.79 435.515Z" fill="#333333"/>
<path d="M1792.57 419.179L1812.02 366.266H1824.57L1797.03 437.94C1794.06 445.59 1789.99 451.424 1784.81 455.425C1779.64 459.43 1773.72 461.209 1767.06 460.759V449.825C1775.34 450.454 1781.41 445.863 1785.29 436.057L1786.51 433.487L1757.07 366.268H1769.62L1792.58 419.181L1792.57 419.179Z" fill="#333333"/>
<path d="M689.454 0H0V433.888H689.454V0Z" fill="#BEBEBE"/>
<path d="M552.085 97.0503H0V433.889H552.085V97.0503Z" fill="#949494"/>
<path d="M414.562 192.162H0V433.887H414.562V192.162Z" fill="#5A5A5A"/>
<path d="M277.259 290.176H0.0102539V433.181H277.259V290.176Z" fill="#333333"/>
</svg>
