<svg width="149" height="60" viewBox="0 0 149 60" fill="none" xmlns="http://www.w3.org/2000/svg">
<path d="M95.9082 24.5177H93.3165L90.2971 19.3342H87.537V24.5177H85.1655V10.2632H90.8673C91.4691 10.2615 92.0653 10.3786 92.6218 10.6077C93.1783 10.8368 93.6841 11.1735 94.1103 11.5984C94.5364 12.0234 94.8745 12.5282 95.1052 13.084C95.3359 13.6399 95.4547 14.2358 95.4547 14.8376C95.4632 15.734 95.1864 16.6099 94.6642 17.3386C94.1612 18.0761 93.4477 18.6451 92.6167 18.9714L95.9082 24.5177ZM90.9192 12.4532H87.5629V17.222H90.9192C91.218 17.2245 91.514 17.1647 91.7884 17.0464C92.0629 16.9282 92.3097 16.7541 92.5131 16.5352C92.9181 16.0648 93.1408 15.4647 93.1408 14.8441C93.1408 14.2234 92.9181 13.6233 92.5131 13.153C92.3124 12.9298 92.0664 12.7519 91.7915 12.6312C91.5167 12.5106 91.2193 12.4499 90.9192 12.4532Z" fill="#333333"/>
<path d="M100.041 18.4271V22.2758H106.352V24.5177H97.6958V10.2632H106.261V12.505H100.041V16.2112H105.743V18.4271H100.041Z" fill="#333333"/>
<path d="M108.489 10.2638H114.087C114.998 10.2435 115.902 10.4154 116.742 10.7682C117.581 11.1209 118.337 11.6467 118.96 12.3113C120.219 13.7009 120.917 15.5092 120.917 17.3846C120.917 19.2599 120.219 21.0682 118.96 22.4579C118.338 23.1247 117.583 23.653 116.743 24.008C115.904 24.363 114.999 24.5369 114.087 24.5183H108.489V10.2638ZM110.822 22.2764H114.087C114.702 22.2996 115.314 22.1874 115.881 21.9478C116.447 21.7082 116.954 21.347 117.366 20.8899C118.239 19.938 118.704 18.6819 118.662 17.3911C118.702 16.0966 118.237 14.8373 117.366 13.8793C116.952 13.4258 116.444 13.0681 115.878 12.8308C115.312 12.5936 114.701 12.4826 114.087 12.5057H110.822V22.2764Z" fill="#333333"/>
<path d="M85.1655 28.0827H90.4138C91.0497 28.0492 91.6857 28.1456 92.2832 28.3659C92.8807 28.5862 93.427 28.9258 93.889 29.3641C94.3509 29.8024 94.7188 30.3302 94.9702 30.9152C95.2216 31.5003 95.3513 32.1304 95.3513 32.7672C95.3513 33.404 95.2216 34.0341 94.9702 34.6192C94.7188 35.2042 94.3509 35.732 93.889 36.1703C93.427 36.6085 92.8807 36.9482 92.2832 37.1685C91.6857 37.3888 91.0497 37.4852 90.4138 37.4517H87.511V42.3371H85.1655V28.0827ZM87.511 35.2488H90.4138C90.7322 35.2604 91.0495 35.204 91.3445 35.0833C91.6395 34.9627 91.9053 34.7805 92.1243 34.549C92.558 34.0567 92.7972 33.4232 92.7972 32.7672C92.7972 32.1111 92.558 31.4776 92.1243 30.9854C91.9059 30.7522 91.6405 30.568 91.3456 30.4452C91.0507 30.3223 90.7331 30.2635 90.4138 30.2726H87.511V35.2488Z" fill="#333333"/>
<path d="M107.621 42.336H105.029L104.032 39.4592H97.967L96.9692 42.336H94.3774L99.5609 28.0815H102.373L107.621 42.336ZM101.064 30.8676L98.7963 37.3469H103.306L101.064 30.8676Z" fill="#333333"/>
<path d="M117.706 37.7487V28.0815H120.052V42.336H118.212L111.499 32.6559V42.336H109.154V28.0815H110.994L117.706 37.7487Z" fill="#333333"/>
<path d="M122.903 28.0822H128.501C129.411 28.0619 130.316 28.2337 131.155 28.5865C131.995 28.9393 132.751 29.4651 133.373 30.1296C134.633 31.5192 135.33 33.3276 135.33 35.2029C135.33 37.0783 134.633 38.8866 133.373 40.2762C132.752 40.9431 131.997 41.4713 131.157 41.8264C130.317 42.1814 129.412 42.3553 128.501 42.3366H122.903V28.0822ZM125.248 40.0948H128.501C129.116 40.1179 129.728 40.0058 130.294 39.7662C130.861 39.5266 131.368 39.1654 131.779 38.7082C132.652 37.7563 133.118 36.5003 133.075 35.2094C133.116 33.915 132.651 32.6557 131.779 31.6976C131.366 31.2442 130.858 30.8864 130.292 30.6492C129.726 30.412 129.114 30.301 128.501 30.324H125.248V40.0948Z" fill="#333333"/>
<path d="M148.756 42.336H146.229L145.232 39.4592H139.154L138.156 42.336H135.564L140.748 28.0815H143.56L148.756 42.336ZM142.186 30.8676L139.919 37.3469H144.441L142.186 30.8676Z" fill="#333333"/>
<path d="M85.3057 51.1226H87.5734C87.9732 51.1216 88.3643 51.2391 88.6972 51.4604C89.0302 51.6816 89.2901 51.9967 89.444 52.3656C89.598 52.7345 89.6391 53.1408 89.5622 53.5331C89.4852 53.9254 89.2937 54.2861 89.0118 54.5695C88.8221 54.7555 88.5971 54.9018 88.3501 54.9997C88.1031 55.0976 87.8391 55.1452 87.5734 55.1397H86.135V57.3816H85.3057V51.1226ZM86.135 54.3622H87.5734C87.7326 54.3676 87.8911 54.3392 88.0385 54.2789C88.186 54.2186 88.3189 54.1278 88.4287 54.0123C88.6509 53.7727 88.7744 53.4579 88.7744 53.1311C88.7744 52.8043 88.6509 52.4896 88.4287 52.25C88.3189 52.1345 88.186 52.0437 88.0385 51.9834C87.8911 51.923 87.7326 51.8947 87.5734 51.9001H86.135V54.3622Z" fill="#333333"/>
<path d="M91.178 52.8984V53.65C91.2934 53.3842 91.4893 53.1613 91.738 53.0125C91.9867 52.8638 92.2758 52.7967 92.5646 52.8207V53.6241C92.2094 53.6047 91.8593 53.7153 91.5797 53.9351C91.4364 54.0701 91.3258 54.2359 91.2562 54.4201C91.1866 54.6042 91.1598 54.8017 91.178 54.9977V57.3691H90.3486V52.8984H91.178Z" fill="#333333"/>
<path d="M93.7173 52.0943C93.6475 52.0951 93.5781 52.0817 93.5135 52.0549C93.449 52.0282 93.3905 51.9887 93.3415 51.9388C93.293 51.8922 93.2552 51.8356 93.2306 51.773C93.2059 51.7103 93.1952 51.6431 93.199 51.576C93.196 51.5089 93.2072 51.4419 93.2317 51.3794C93.2563 51.3169 93.2937 51.2602 93.3415 51.2131C93.4133 51.1376 93.5061 51.0855 93.6079 51.0635C93.7097 51.0415 93.8158 51.0506 93.9123 51.0898C94.0088 51.129 94.0913 51.1963 94.149 51.283C94.2066 51.3697 94.2369 51.4718 94.2357 51.576C94.2371 51.6429 94.2253 51.7094 94.2008 51.7717C94.1763 51.834 94.1397 51.8908 94.0931 51.9388C94.0442 51.9887 93.9857 52.0282 93.9211 52.0549C93.8566 52.0817 93.7872 52.0951 93.7173 52.0943ZM94.1061 57.3814H93.3286V52.8977H94.1061V57.3814Z" fill="#333333"/>
<path d="M97.5211 52.7934C97.7595 52.7805 97.9979 52.8176 98.2211 52.9024C98.4443 52.9872 98.6473 53.1178 98.8169 53.2858C99.1297 53.6438 99.2963 54.1064 99.2834 54.5816V57.3289H98.5059V54.6205C98.5168 54.4691 98.4959 54.3172 98.4446 54.1743C98.3932 54.0315 98.3126 53.901 98.2079 53.7912C98.1036 53.6854 97.978 53.6031 97.8395 53.5494C97.701 53.4958 97.5527 53.4722 97.4044 53.4802C97.229 53.4709 97.0536 53.4996 96.8903 53.5645C96.727 53.6294 96.5797 53.7288 96.4585 53.856C96.2035 54.1639 96.078 54.5588 96.1086 54.9574V57.3289H95.3311V52.897H96.1086V53.545C96.2542 53.297 96.4657 53.0942 96.7197 52.9593C96.9736 52.8243 97.26 52.7624 97.547 52.7804" fill="#333333"/>
<path d="M102.762 52.8981V53.6497H101.57V56.073C101.557 56.2388 101.603 56.4038 101.699 56.5395C101.753 56.589 101.817 56.6272 101.886 56.6517C101.955 56.6762 102.028 56.6865 102.101 56.682H102.762V57.3818C102.26 57.4932 101.736 57.4339 101.272 57.2133C101.105 57.0795 100.974 56.9066 100.89 56.7099C100.807 56.5131 100.773 56.2988 100.792 56.0859V53.6627H99.9111V52.8981H100.792V51.8744L101.57 51.6411V52.937L102.762 52.8981Z" fill="#333333"/>
<path d="M104.084 52.0951C104.014 52.0983 103.944 52.086 103.879 52.0591C103.814 52.0322 103.756 51.9914 103.708 51.9395C103.658 51.8941 103.617 51.8381 103.59 51.7754C103.564 51.7127 103.551 51.6449 103.553 51.5767C103.559 51.4378 103.617 51.3063 103.716 51.208C103.814 51.1097 103.945 51.0517 104.084 51.0454C104.153 51.0473 104.221 51.0632 104.283 51.0922C104.345 51.1212 104.401 51.1626 104.447 51.2139C104.497 51.2603 104.536 51.3166 104.563 51.379C104.59 51.4415 104.603 51.5088 104.603 51.5767C104.605 51.6449 104.592 51.7127 104.565 51.7754C104.538 51.8381 104.498 51.8941 104.447 51.9395C104.401 51.9891 104.344 52.0285 104.282 52.0553C104.22 52.082 104.152 52.0956 104.084 52.0951ZM104.46 57.3822H103.683V52.8985H104.46V57.3822Z" fill="#333333"/>
<path d="M107.885 52.7942C108.124 52.7805 108.363 52.8172 108.586 52.9021C108.809 52.9869 109.012 53.118 109.181 53.2866C109.494 53.6446 109.661 54.1073 109.648 54.5825V57.3297H108.87V54.6214C108.88 54.4711 108.861 54.3203 108.812 54.1778C108.763 54.0354 108.686 53.9042 108.585 53.792C108.479 53.6853 108.351 53.6023 108.21 53.5487C108.07 53.4951 107.919 53.472 107.769 53.481C107.594 53.4765 107.42 53.5075 107.257 53.5721C107.095 53.6367 106.947 53.7336 106.823 53.8568C106.568 54.1647 106.442 54.5596 106.473 54.9583V57.3297H105.695V52.8979H106.473V53.5458C106.619 53.2957 106.833 53.0917 107.09 52.9566C107.346 52.8215 107.635 52.7607 107.924 52.7812" fill="#333333"/>
<path d="M114.401 53.676V52.8984H115.165V57.1748C115.181 57.4653 115.13 57.7556 115.015 58.0231C114.901 58.2905 114.726 58.528 114.504 58.7169C114.043 59.0808 113.472 59.2773 112.885 59.2741C112.436 59.2808 111.993 59.1832 111.589 58.989C111.236 58.8115 110.95 58.5253 110.772 58.1726L111.446 57.7968C111.59 58.052 111.805 58.2594 112.065 58.3931C112.326 58.5268 112.62 58.5808 112.911 58.5484C113.309 58.5712 113.7 58.4361 113.999 58.1726C114.134 58.0447 114.239 57.8895 114.308 57.7173C114.378 57.5452 114.409 57.3602 114.401 57.1748V56.5398C114.223 56.8237 113.974 57.0559 113.678 57.2129C113.383 57.3699 113.051 57.4461 112.716 57.4339C112.414 57.4486 112.111 57.3983 111.83 57.2866C111.548 57.1748 111.294 57.0042 111.083 56.786C110.865 56.5693 110.693 56.3106 110.577 56.0256C110.461 55.7405 110.404 55.435 110.41 55.1273C110.404 54.8216 110.462 54.5181 110.577 54.2352C110.693 53.9523 110.865 53.6959 111.083 53.4816C111.288 53.2621 111.538 53.0886 111.815 52.9724C112.092 52.8563 112.39 52.8001 112.69 52.8077C113.024 52.7942 113.355 52.8685 113.65 53.0231C113.946 53.1778 114.196 53.4074 114.375 53.6889M114.375 55.1273C114.378 54.9176 114.34 54.7094 114.261 54.5151C114.182 54.3208 114.064 54.1446 113.915 53.9969C113.766 53.8492 113.589 53.7331 113.394 53.6557C113.199 53.5783 112.991 53.5411 112.781 53.5464C112.56 53.5264 112.338 53.5526 112.128 53.6233C111.919 53.6941 111.726 53.8077 111.562 53.9571C111.399 54.1064 111.268 54.2882 111.179 54.4908C111.09 54.6934 111.043 54.9124 111.043 55.1338C111.043 55.3552 111.09 55.5742 111.179 55.7768C111.268 55.9794 111.399 56.1612 111.562 56.3105C111.726 56.4599 111.919 56.5735 112.128 56.6442C112.338 56.715 112.56 56.7412 112.781 56.7212C112.992 56.7266 113.201 56.689 113.397 56.6108C113.593 56.5326 113.771 56.4153 113.92 56.2663C114.069 56.1172 114.186 55.9393 114.264 55.7435C114.343 55.5477 114.38 55.3381 114.375 55.1273Z" fill="#333333"/>
<path d="M122.28 53.6748V52.8973H123.058V57.368H122.28V56.5905C122.106 56.8773 121.857 57.1117 121.561 57.2691C121.264 57.4264 120.931 57.5009 120.596 57.4846C120.295 57.489 119.996 57.4301 119.719 57.3118C119.443 57.1935 119.194 57.0184 118.989 56.7978C118.563 56.3479 118.326 55.752 118.326 55.1327C118.326 54.5133 118.563 53.9175 118.989 53.4675C119.195 53.2482 119.444 53.074 119.72 52.9558C119.997 52.8376 120.295 52.778 120.596 52.7807C120.929 52.7658 121.261 52.8395 121.557 52.9943C121.853 53.1491 122.102 53.3794 122.28 53.6619M120.687 56.7849C120.897 56.7898 121.107 56.7522 121.303 56.6743C121.499 56.5964 121.677 56.4797 121.827 56.3313C122.124 56.0214 122.287 55.6071 122.28 55.178C122.284 54.9677 122.245 54.7589 122.166 54.5639C122.087 54.369 121.97 54.1919 121.821 54.0431C121.673 53.8944 121.496 53.7772 121.301 53.6983C121.106 53.6194 120.897 53.5806 120.687 53.5841C120.266 53.5875 119.864 53.757 119.568 54.0555C119.272 54.354 119.106 54.7575 119.106 55.178C119.102 55.3917 119.142 55.6039 119.222 55.8021C119.302 56.0002 119.421 56.1802 119.572 56.3313C119.718 56.4784 119.891 56.5944 120.083 56.6723C120.274 56.7503 120.48 56.7886 120.687 56.7849Z" fill="#333333"/>
<path d="M127.928 53.6758V52.8982H128.706V57.1746C128.719 57.4661 128.665 57.7567 128.548 58.0241C128.432 58.2914 128.255 58.5284 128.032 58.7167C127.578 59.0844 127.009 59.2816 126.425 59.2739C125.977 59.2821 125.533 59.1844 125.129 58.9888C124.776 58.8077 124.486 58.5229 124.3 58.1724L124.987 57.7966C125.126 58.052 125.339 58.2599 125.598 58.3937C125.856 58.5276 126.149 58.5814 126.438 58.5482C126.84 58.5676 127.233 58.4332 127.539 58.1724C127.672 58.0434 127.775 57.8876 127.842 57.7155C127.909 57.5434 127.938 57.359 127.928 57.1746V56.5396C127.754 56.8235 127.507 57.0558 127.213 57.213C126.92 57.3701 126.589 57.4463 126.257 57.4338C125.954 57.4424 125.654 57.3868 125.374 57.2706C125.095 57.1545 124.844 56.9804 124.637 56.7599C124.423 56.5408 124.254 56.2814 124.14 55.9967C124.027 55.712 123.971 55.4076 123.976 55.1012C123.971 54.7968 124.027 54.4944 124.141 54.2119C124.254 53.9293 124.423 53.6722 124.637 53.4555C124.844 53.235 125.095 53.0609 125.374 52.9448C125.654 52.8286 125.954 52.773 126.257 52.7816C126.588 52.7691 126.917 52.8439 127.21 52.9986C127.504 53.1532 127.751 53.3823 127.928 53.6628M127.928 55.1012C127.932 54.8926 127.893 54.6855 127.815 54.4921C127.737 54.2987 127.621 54.123 127.473 53.9755C127.326 53.828 127.15 53.7117 126.956 53.6335C126.763 53.5552 126.556 53.5167 126.347 53.5203C126.138 53.515 125.929 53.5522 125.734 53.6296C125.539 53.707 125.362 53.8231 125.213 53.9707C125.064 54.1184 124.947 54.2947 124.868 54.489C124.789 54.6833 124.75 54.8915 124.753 55.1012C124.749 55.3119 124.787 55.5214 124.865 55.7172C124.943 55.913 125.059 56.0913 125.207 56.2416C125.357 56.39 125.535 56.5066 125.731 56.5845C125.927 56.6625 126.136 56.7001 126.347 56.6951C126.557 56.6987 126.765 56.6598 126.96 56.5808C127.154 56.5018 127.33 56.3843 127.478 56.2354C127.625 56.0865 127.742 55.9092 127.819 55.7143C127.896 55.5194 127.934 55.3109 127.928 55.1012Z" fill="#333333"/>
<path d="M134.192 55.489H130.447C130.509 55.8525 130.703 56.1803 130.992 56.4091C131.298 56.6466 131.68 56.7661 132.067 56.746C132.322 56.7651 132.576 56.7149 132.804 56.6009C133.033 56.4868 133.226 56.313 133.363 56.0981L134.024 56.4739C133.814 56.8012 133.521 57.0672 133.175 57.2447C132.829 57.4222 132.442 57.505 132.054 57.4847C131.735 57.4956 131.418 57.4428 131.119 57.3293C130.821 57.2158 130.549 57.0439 130.318 56.8238C130.1 56.5992 129.929 56.3333 129.816 56.0418C129.702 55.7502 129.648 55.4389 129.657 55.1262C129.647 54.8172 129.701 54.5096 129.815 54.2221C129.928 53.9346 130.099 53.6734 130.318 53.4545C130.535 53.2297 130.798 53.0534 131.088 52.9373C131.378 52.8212 131.69 52.7678 132.002 52.7807C132.304 52.7694 132.604 52.8264 132.88 52.9476C133.156 53.0688 133.401 53.251 133.596 53.4805C133.806 53.7013 133.971 53.9615 134.08 54.2463C134.189 54.531 134.24 54.8344 134.231 55.1392C134.238 55.2557 134.238 55.3725 134.231 55.489M132.028 53.5193C131.654 53.5096 131.288 53.6285 130.992 53.8563C130.713 54.1042 130.533 54.4449 130.486 54.8152H133.467C133.424 54.4464 133.249 54.1055 132.974 53.8563C132.847 53.74 132.698 53.6503 132.535 53.5924C132.373 53.5346 132.2 53.5097 132.028 53.5193Z" fill="#333333"/>
<path d="M137.32 52.7934C137.558 52.7805 137.797 52.8176 138.02 52.9024C138.243 52.9872 138.446 53.1178 138.616 53.2858C138.928 53.6438 139.095 54.1064 139.082 54.5816V57.3289H138.292V54.6205C138.302 54.4691 138.282 54.3172 138.23 54.1743C138.179 54.0315 138.098 53.901 137.994 53.7912C137.889 53.6854 137.764 53.6031 137.625 53.5494C137.487 53.4958 137.338 53.4722 137.19 53.4802C137.015 53.4757 136.841 53.5067 136.679 53.5713C136.516 53.6359 136.368 53.7327 136.244 53.856C135.989 54.1639 135.864 54.5588 135.894 54.9574V57.3289H135.117V52.897H135.894V53.545C136.04 53.297 136.251 53.0942 136.505 52.9593C136.759 52.8243 137.046 52.7624 137.333 52.7804" fill="#333333"/>
<path d="M142.247 57.4977C141.781 57.4957 141.326 57.3565 140.939 57.0974C140.551 56.8383 140.249 56.4708 140.069 56.0409C139.889 55.6109 139.84 55.1376 139.928 54.6799C140.016 54.2223 140.236 53.8006 140.562 53.4676C140.938 53.1079 141.419 52.8785 141.934 52.8132C142.45 52.7478 142.973 52.85 143.426 53.1047C143.766 53.309 144.04 53.6057 144.217 53.96L143.569 54.3358C143.454 54.0957 143.269 53.8966 143.037 53.7656C142.734 53.595 142.383 53.5268 142.038 53.5712C141.692 53.6155 141.37 53.77 141.12 54.0118C140.83 54.3156 140.668 54.7193 140.668 55.1392C140.668 55.5591 140.83 55.9629 141.12 56.2666C141.265 56.4172 141.441 56.5354 141.635 56.6135C141.829 56.6917 142.038 56.728 142.247 56.7202C142.529 56.7258 142.807 56.654 143.05 56.5128C143.281 56.3772 143.47 56.1797 143.595 55.9427L144.256 56.3314C144.06 56.6849 143.774 56.9801 143.426 57.1867C143.068 57.3937 142.661 57.5011 142.247 57.4977Z" fill="#333333"/>
<path d="M146.86 56.4093L148.156 52.9104H148.998L147.171 57.6533C147.015 58.1044 146.737 58.5035 146.368 58.8066C146.035 59.0723 145.613 59.2019 145.189 59.1694V58.4437C145.733 58.4437 146.134 58.1846 146.394 57.5237L146.471 57.3552L144.515 52.8975H145.344L146.86 56.4093Z" fill="#333333"/>
<g opacity="0.3">
<mask id="mask0_38_72" style="mask-type:luminance" maskUnits="userSpaceOnUse" x="0" y="0" width="72" height="42">
<path d="M71.2205 0.000488281H0V41.9086H71.2205V0.000488281Z" fill="white"/>
</mask>
<g mask="url(#mask0_38_72)">
<path d="M71.2205 0.000488281H0V41.9086H71.2205V0.000488281Z" fill="#333333"/>
</g>
</g>
<g opacity="0.3">
<mask id="mask1_38_72" style="mask-type:luminance" maskUnits="userSpaceOnUse" x="0" y="10" width="57" height="32">
<path d="M56.7069 10.4829H0V41.8946H56.7069V10.4829Z" fill="white"/>
</mask>
<g mask="url(#mask1_38_72)">
<path d="M56.7069 10.4829H0V41.8946H56.7069V10.4829Z" fill="#333333"/>
</g>
</g>
<g opacity="0.6">
<mask id="mask2_38_72" style="mask-type:luminance" maskUnits="userSpaceOnUse" x="0" y="20" width="43" height="22">
<path d="M42.3746 20.9268H0V41.8938H42.3746V20.9268Z" fill="white"/>
</mask>
<g mask="url(#mask2_38_72)">
<path d="M42.3746 20.9268H0V41.8938H42.3746V20.9268Z" fill="#333333"/>
</g>
</g>
<path d="M27.7573 31.4126H0V41.8313H27.7573V31.4126Z" fill="#333333"/>
</svg>
