<svg width="510" height="224" viewBox="0 0 510 224" fill="none" xmlns="http://www.w3.org/2000/svg">
<path d="M84.6968 34.6438C85.2341 32.4901 85.5192 30.2378 85.5192 27.9195C85.5192 12.5 72.9066 0 57.3482 0C41.7897 0 29.1771 12.5 29.1771 27.9195C29.1771 28.5446 29.1978 29.1649 29.2386 29.7797C12.2602 35.3535 0 51.3328 0 70.1757C0 93.6523 19.0315 112.684 42.5081 112.684C43.787 112.684 45.0528 112.627 46.303 112.517L45.2306 129.896C45.0584 132.687 46.5405 135.179 48.8091 136.447C49.9009 137.156 51.2059 137.571 52.6169 137.571H61.6746C63.2787 137.571 64.7465 137.035 65.9197 136.139C67.8933 134.806 69.1459 132.497 68.9996 129.929L67.6914 106.963C68.9222 107.087 70.1707 107.15 71.4339 107.15C91.9932 107.15 108.66 90.3711 108.66 69.6729C108.66 53.6781 98.7073 40.0236 84.6968 34.6438Z" fill="#19B27C"/>
<path d="M451.743 5.0293C465.762 5.0293 477.389 15.1785 479.553 28.4678C496.423 32.0341 509.091 47.1003 509.091 65.1451C509.091 85.8434 492.424 102.623 471.865 102.623C471.386 102.623 470.909 102.614 470.434 102.596C469.642 103.268 468.825 103.912 467.984 104.526L469.431 129.929C469.66 133.949 466.462 137.334 462.436 137.334H452.654C448.615 137.334 445.413 133.927 445.662 129.896L446.734 112.517C445.484 112.627 444.218 112.684 442.939 112.684C419.463 112.684 400.431 93.6523 400.431 70.1757C400.431 53.6723 409.836 39.3656 423.579 32.3226C423.915 17.1923 436.395 5.0293 451.743 5.0293Z" fill="#19B27C"/>
<path d="M98.0132 185.862C99.2089 186.41 100.131 187.207 100.778 188.253H118.265C117.468 182.524 114.877 177.991 110.493 174.653C106.159 171.315 100.529 169.646 93.6042 169.646C88.1739 169.646 83.4411 170.792 79.4057 173.083C75.3703 175.325 72.2566 178.489 70.0646 182.574C67.9224 186.659 66.8512 191.317 66.8512 196.548C66.8512 201.779 67.9224 206.437 70.0646 210.523C72.2566 214.608 75.3703 217.796 79.4057 220.088C83.4909 222.33 88.2735 223.451 93.7537 223.451C99.9313 223.451 105.038 222.056 109.073 219.266C113.108 216.426 116.272 213.038 118.564 209.103V192.513H91.5865V204.245H104.814C102.472 207.334 99.3833 208.879 95.5472 208.879C91.5118 208.879 88.5226 207.857 86.5797 205.815C84.6367 203.772 83.6653 200.683 83.6653 196.548C83.6653 192.961 84.5371 190.147 86.2808 188.104C88.0244 186.012 90.4905 184.965 93.6789 184.965C95.3728 184.965 96.8176 185.264 98.0132 185.862Z" fill="#19B27C"/>
<path fill-rule="evenodd" clip-rule="evenodd" d="M153.533 215.081H171.169L173.785 223.077H191.271L171.991 170.169H152.861L133.506 223.077H150.918L153.533 215.081ZM162.351 187.88L167.134 202.601H157.569L162.351 187.88Z" fill="#19B27C"/>
<path fill-rule="evenodd" clip-rule="evenodd" d="M224.409 204.096L234.348 223.077H252.582L241.074 202.826C244.76 201.63 247.575 199.662 249.518 196.922C251.511 194.182 252.507 191.043 252.507 187.506C252.507 184.218 251.735 181.279 250.191 178.688C248.696 176.048 246.429 173.98 243.39 172.486C240.351 170.941 236.689 170.169 232.405 170.169H207.744V223.077H224.334V204.096H224.409ZM230.91 193.036H224.334V184.069H230.91C232.455 184.069 233.626 184.467 234.423 185.264C235.27 186.061 235.693 187.157 235.693 188.552C235.693 190.097 235.295 191.243 234.497 191.99C233.7 192.687 232.505 193.036 230.91 193.036Z" fill="#19B27C"/>
<path fill-rule="evenodd" clip-rule="evenodd" d="M307.053 173.532C302.918 171.29 298.086 170.169 292.556 170.169H270.511V223.077H292.556C298.086 223.077 302.918 221.931 307.053 219.64C311.238 217.298 314.452 214.11 316.693 210.074C318.935 206.039 320.056 201.505 320.056 196.474C320.056 191.392 318.935 186.858 316.693 182.873C314.452 178.887 311.238 175.774 307.053 173.532ZM299.954 205.217C297.762 207.259 294.798 208.281 291.061 208.281H287.101V184.666H291.061C294.798 184.666 297.762 185.688 299.954 187.73C302.146 189.773 303.242 192.687 303.242 196.474C303.242 200.26 302.146 203.174 299.954 205.217Z" fill="#19B27C"/>
<path d="M355.341 189.897V183.396H374.023V170.169H338.751V223.077H374.023V209.85H355.341V202.377H371.781V189.897H355.341Z" fill="#19B27C"/>
<path d="M427.13 223.077H443.72V170.169H427.13V197.221L409.569 170.169H392.979V223.077H409.569V196.474L427.13 223.077Z" fill="#19B27C"/>
<path d="M209.378 12.5763C205.652 12.5763 202.577 15.493 202.382 19.214L199.71 69.9671H183.714L181.25 19.2422C181.068 15.5096 177.989 12.5763 174.252 12.5763H153.365C149.639 12.5763 146.565 15.493 146.369 19.214L143.697 69.9671H137.022C133.582 69.9671 130.794 72.7553 130.794 76.1946V78.8314C130.794 82.2707 133.582 85.0588 137.022 85.0588H142.903L140.566 129.457C140.356 133.465 143.549 136.831 147.563 136.831H179.608C183.611 136.831 186.8 133.483 186.606 129.485L184.447 85.0588H198.916L196.579 129.457C196.368 133.465 199.562 136.831 203.575 136.831H235.621C239.623 136.831 242.813 133.483 242.618 129.485L240.46 85.0588H241.778C245.218 85.0588 248.006 82.2707 248.006 78.8314V76.1946C248.006 72.7553 245.218 69.9671 241.778 69.9671H239.727L237.262 19.2422C237.081 15.5096 234.002 12.5763 230.265 12.5763H209.378Z" fill="#19B27C"/>
<path d="M328.515 19.214C328.711 15.493 331.785 12.5763 335.511 12.5763H356.398C360.135 12.5763 363.215 15.5096 363.396 19.2422L365.052 53.3253H370.56C374 53.3253 376.788 56.1134 376.788 59.5527V62.1895C376.788 65.6288 374 68.4169 370.56 68.4169H365.785L368.752 129.485C368.946 133.483 365.757 136.831 361.754 136.831H329.709C325.695 136.831 322.502 133.465 322.713 129.457L325.925 68.4169H310.724L313.691 129.485C313.885 133.483 310.696 136.831 306.693 136.831H274.648C270.634 136.831 267.441 133.465 267.652 129.457L270.864 68.4169H265.803C262.364 68.4169 259.576 65.6288 259.576 62.1895V59.5527C259.576 56.1134 262.364 53.3253 265.803 53.3253H271.659L273.454 19.214C273.65 15.493 276.724 12.5763 280.45 12.5763H301.337C305.074 12.5763 308.153 15.5096 308.335 19.2422L309.991 53.3253H326.72L328.515 19.214Z" fill="#19B27C"/>
</svg>
